<svg xmlns="http://www.w3.org/2000/svg" version="1.1" xmlns:xlink="http://www.w3.org/1999/xlink" xmlns:svgjs="http://svgjs.dev/svgjs" width="1500" height="1500" viewBox="0 0 1500 1500"><rect width="1500" height="1500" fill="#ffffff"></rect><g transform="matrix(0.6666666666666666,0,0,0.6666666666666666,249.39393939393932,573.095578223993)"><svg viewBox="0 0 396 140" data-background-color="#61777f" preserveAspectRatio="xMidYMid meet" height="530" width="1500" xmlns="http://www.w3.org/2000/svg" xmlns:xlink="http://www.w3.org/1999/xlink"><g id="tight-bounds" transform="matrix(1,0,0,1,0.24000000000003752,0.09420485464428907)"><svg viewBox="0 0 395.5199999999999 139.81154882900177" height="139.81154882900177" width="395.5199999999999"><g><svg viewBox="0 0 671.6832591971377 237.43192958855096" height="139.81154882900177" width="395.5199999999999"><g transform="matrix(1,0,0,1,276.16325919713773,85.90337087656528)"><svg viewBox="0 0 395.52 65.62518783542039" height="65.62518783542039" width="395.52"><g id="textblocktransform"><svg viewBox="0 0 395.52 65.62518783542039" height="65.62518783542039" width="395.52" id="textblock"><g><svg viewBox="0 0 395.52 65.62518783542039" height="65.62518783542039" width="395.52"><g transform="matrix(1,0,0,1,0,0)"><svg width="395.52" viewBox="1.5 -36.5 223.58 37.1" height="65.62518783542039" data-palette-color="#ffffff"><path d="M23.9 0L19.4 0Q15.4-0.05 12.1-1.43 8.8-2.8 6.43-5.2 4.05-7.6 2.78-10.75 1.5-13.9 1.5-17.5L1.5-17.5Q1.5-21.1 2.78-24.25 4.05-27.4 6.43-29.8 8.8-32.2 12.1-33.58 15.4-34.95 19.4-35L19.4-35 23.9-35 23.9-30.75 19.55-30.75Q16.7-30.75 14.3-29.73 11.9-28.7 10.13-26.93 8.35-25.15 7.35-22.75 6.35-20.35 6.35-17.5L6.35-17.5Q6.35-14.7 7.35-12.28 8.35-9.85 10.13-8.08 11.9-6.3 14.3-5.3 16.7-4.3 19.55-4.25L19.55-4.25 23.9-4.25 23.9 0ZM33.95 0L29.35 0 29.35-36.5 33.95-36.5 33.95 0ZM53.2 0.6L53.2 0.6Q49.75 0.6 47.02-0.83 44.3-2.25 42.77-4.8 41.25-7.35 41.25-10.75L41.25-10.75 41.25-25.5 45.9-25.5 45.9-10.8Q45.9-8.5 46.9-6.83 47.9-5.15 49.57-4.25 51.25-3.35 53.15-3.35L53.15-3.35Q55.1-3.35 56.77-4.25 58.45-5.15 59.47-6.83 60.5-8.5 60.5-10.8L60.5-10.8 60.5-25.5 65.15-25.5 65.15-10.75Q65.15-7.35 63.6-4.8 62.05-2.25 59.35-0.83 56.65 0.6 53.2 0.6ZM85.34 0.6L85.34 0.6Q81.64 0.6 78.69-1 75.74-2.6 74.02-5.63 72.29-8.65 72.29-12.9L72.29-12.9 72.29-36.5 76.89-36.5 76.89-20.95 76.99-20.95Q77.84-22.5 79.22-23.65 80.59-24.8 82.37-25.45 84.14-26.1 86.09-26.1L86.09-26.1Q89.64-26.1 92.44-24.5 95.24-22.9 96.87-19.98 98.49-17.05 98.49-13.05L98.49-13.05Q98.49-9.9 97.52-7.38 96.54-4.85 94.79-3.05 93.04-1.25 90.64-0.33 88.24 0.6 85.34 0.6ZM85.34-3.35L85.34-3.35Q87.69-3.35 89.62-4.5 91.54-5.65 92.69-7.75 93.84-9.85 93.84-12.75L93.84-12.75Q93.84-15.55 92.72-17.65 91.59-19.75 89.69-20.95 87.79-22.15 85.39-22.15L85.39-22.15Q83.04-22.15 81.12-21 79.19-19.85 78.07-17.73 76.94-15.6 76.94-12.7L76.94-12.7Q76.94-9.85 78.07-7.75 79.19-5.65 81.12-4.5 83.04-3.35 85.34-3.35ZM108.99 0L104.39 0 104.39-36.5 108.99-36.5 108.99-22.2Q110.54-24.2 112.77-25.15 114.99-26.1 117.39-26.1L117.39-26.1Q120.79-26.1 123.29-24.68 125.79-23.25 127.19-20.7 128.59-18.15 128.59-14.75L128.59-14.75 128.59 0 123.99 0 123.99-14.7Q123.99-17 122.94-18.68 121.89-20.35 120.17-21.25 118.44-22.15 116.49-22.15L116.49-22.15Q114.54-22.15 112.84-21.28 111.14-20.4 110.07-18.75 108.99-17.1 108.99-14.8L108.99-14.8 108.99 0ZM147.84 0.6L147.84 0.6Q144.39 0.6 141.66-0.83 138.94-2.25 137.41-4.8 135.89-7.35 135.89-10.75L135.89-10.75 135.89-25.5 140.54-25.5 140.54-10.8Q140.54-8.5 141.54-6.83 142.54-5.15 144.21-4.25 145.89-3.35 147.79-3.35L147.79-3.35Q149.74-3.35 151.41-4.25 153.09-5.15 154.11-6.83 155.14-8.5 155.14-10.8L155.14-10.8 155.14-25.5 159.79-25.5 159.79-10.75Q159.79-7.35 158.24-4.8 156.69-2.25 153.99-0.83 151.29 0.6 147.84 0.6ZM179.99 0.6L179.99 0.6Q176.28 0.6 173.34-1 170.38-2.6 168.66-5.63 166.94-8.65 166.94-12.9L166.94-12.9 166.94-36.5 171.53-36.5 171.53-20.95 171.63-20.95Q172.49-22.5 173.86-23.65 175.24-24.8 177.01-25.45 178.78-26.1 180.74-26.1L180.74-26.1Q184.28-26.1 187.09-24.5 189.88-22.9 191.51-19.98 193.13-17.05 193.13-13.05L193.13-13.05Q193.13-9.9 192.16-7.38 191.19-4.85 189.44-3.05 187.69-1.25 185.28-0.33 182.88 0.6 179.99 0.6ZM179.99-3.35L179.99-3.35Q182.34-3.35 184.26-4.5 186.19-5.65 187.34-7.75 188.49-9.85 188.49-12.75L188.49-12.75Q188.49-15.55 187.36-17.65 186.24-19.75 184.34-20.95 182.44-22.15 180.03-22.15L180.03-22.15Q177.69-22.15 175.76-21 173.84-19.85 172.71-17.73 171.59-15.6 171.59-12.7L171.59-12.7Q171.59-9.85 172.71-7.75 173.84-5.65 175.76-4.5 177.69-3.35 179.99-3.35ZM211.93 0.6L211.93 0.6Q208.23 0.6 205.28-1 202.33-2.6 200.61-5.63 198.88-8.65 198.88-12.9L198.88-12.9 198.88-36.5 203.48-36.5 203.48-20.95 203.58-20.95Q204.43-22.5 205.81-23.65 207.18-24.8 208.96-25.45 210.73-26.1 212.68-26.1L212.68-26.1Q216.23-26.1 219.03-24.5 221.83-22.9 223.46-19.98 225.08-17.05 225.08-13.05L225.08-13.05Q225.08-9.9 224.11-7.38 223.13-4.85 221.38-3.05 219.63-1.25 217.23-0.33 214.83 0.6 211.93 0.6ZM211.93-3.35L211.93-3.35Q214.28-3.35 216.21-4.5 218.13-5.65 219.28-7.75 220.43-9.85 220.43-12.75L220.43-12.75Q220.43-15.55 219.31-17.65 218.18-19.75 216.28-20.95 214.38-22.15 211.98-22.15L211.98-22.15Q209.63-22.15 207.71-21 205.78-19.85 204.66-17.73 203.53-15.6 203.53-12.7L203.53-12.7Q203.53-9.85 204.66-7.75 205.78-5.65 207.71-4.5 209.63-3.35 211.93-3.35Z" opacity="1" transform="matrix(1,0,0,1,0,0)" fill="#000000" class="wordmark-text-0" data-fill-palette-color="primary" id="text-0"></path></svg></g></svg></g></svg></g></svg></g><g><svg viewBox="0 0 237.43192958855096 237.43192958855096" height="237.43192958855096" width="237.43192958855096"><g><svg viewBox="0 0 237.43192958855096 237.43192958855096" height="237.43192958855096" width="237.43192958855096"><g transform="matrix(1,0,0,1,62.752722300185056,73.95639266538677)"><svg viewBox="0 0 111.92648498818085 89.51914425777743" height="89.51914425777743" width="111.92648498818085"><g><svg xmlns="http://www.w3.org/2000/svg" xmlns:xlink="http://www.w3.org/1999/xlink" version="1.1" x="0" y="0" viewBox="0.5869999999999997 9.39 98.503 78.78299999999999" enable-background="new 0 0 100 100" xml:space="preserve" height="89.51914425777743" width="111.92648498818085" class="icon-cg-0" data-fill-palette-color="accent" id="cg-0"><path d="M13.036 18.174c-3.75 0-6.799 3.051-6.799 6.802s3.049 6.807 6.799 6.807c3.748 0 6.809-3.055 6.809-6.807C19.845 21.225 16.784 18.174 13.036 18.174z" fill="#000000" data-fill-palette-color="accent"></path><path d="M40.776 9.39c-3.75 0-6.801 3.051-6.801 6.804 0 3.751 3.05 6.807 6.801 6.807 3.749 0 6.807-3.056 6.807-6.807C47.585 12.441 44.524 9.39 40.776 9.39z" fill="#000000" data-fill-palette-color="accent"></path><path d="M93.67 24.718c-3.55-1.219-7.424 0.675-8.644 4.226-1.218 3.546 0.673 7.432 4.223 8.646 3.543 1.219 7.431-0.681 8.649-4.227C99.119 29.813 97.212 25.932 93.67 24.718z" fill="#000000" data-fill-palette-color="accent"></path><path d="M5.977 60.104v26.766h14.174V60.104h5.308l0.001-20.233c0-3.363-2.727-6.091-6.089-6.091H6.676c-3.363 0-6.089 2.728-6.089 6.091l0.027 20.233H5.977z" fill="#000000" data-fill-palette-color="accent"></path><path d="M68.908 38.576c0 0-17.17-11.831-17.198-11.849-0.996-0.713-3.039-1.717-4.949-1.717H34.682c-3.354 0-6.074 2.725-6.074 6.088l-0.012 23.656h5.365v32.115h15.111V33.78h0.013L64.78 44.575c0.631 0.432 1.349 0.641 2.061 0.641 1.159 0 2.299-0.552 3.003-1.578C70.983 41.979 70.563 39.713 68.908 38.576z" fill="#000000" data-fill-palette-color="accent"></path><path d="M80.283 86.219l7.061-20.562 5.022 1.729 6.23-18.172c1.091-3.18-0.594-6.639-3.767-7.731l-11.983-4.115c-3.174-1.087-6.633 0.604-7.724 3.785l-6.261 18.16 5.075 1.744-7.732 22.512 13.393 4.604h19.493v-1.951H80.283z" fill="#000000" data-fill-palette-color="accent"></path></svg></g></svg></g><g id="text-0"><path d="M23.464 83.373l-0.725 2.243c-0.449 1.324-1.079 2.461-1.889 3.41-0.81 0.949-1.743 1.69-2.797 2.224-1.052 0.528-2.17 0.835-3.352 0.921-1.183 0.087-2.373-0.063-3.57-0.45v0c-1.198-0.387-2.25-0.962-3.159-1.724-0.915-0.764-1.644-1.668-2.188-2.712-0.542-1.05-0.865-2.197-0.967-3.44-0.102-1.244 0.056-2.533 0.473-3.868v0l0.725-2.242 2.119 0.684-0.7 2.167c-0.307 0.95-0.422 1.879-0.344 2.786 0.084 0.909 0.326 1.753 0.725 2.533 0.399 0.78 0.944 1.463 1.636 2.051 0.69 0.594 1.51 1.044 2.46 1.351v0c0.931 0.301 1.854 0.414 2.767 0.338 0.911-0.069 1.757-0.304 2.536-0.703 0.78-0.399 1.466-0.943 2.06-1.633 0.587-0.692 1.044-1.51 1.371-2.454v0l0.7-2.167z" fill="#000000" data-fill-palette-color="accent"></path><path d="M36.696 59.753l-1.382 1.971-15.656-10.988 1.382-1.97z" fill="#000000" data-fill-palette-color="accent"></path><path d="M59.692 38.031v0c-0.969 0.716-1.983 1.159-3.042 1.328-1.063 0.164-2.073 0.045-3.031-0.356-0.959-0.401-1.79-1.078-2.495-2.032v0l-4.593-6.218 1.961-1.448 4.575 6.194c0.479 0.648 1.031 1.105 1.658 1.371 0.627 0.266 1.269 0.35 1.926 0.253 0.657-0.096 1.254-0.342 1.789-0.738v0c0.546-0.404 0.962-0.905 1.247-1.505 0.285-0.6 0.399-1.242 0.34-1.927-0.059-0.685-0.328-1.351-0.806-1.999v0l-4.576-6.194 1.961-1.448 4.593 6.218c0.704 0.953 1.102 1.951 1.192 2.993 0.096 1.038-0.087 2.039-0.551 3.002-0.462 0.954-1.178 1.789-2.148 2.506z" fill="#000000" data-fill-palette-color="accent"></path><path d="M94.065 22.268v0c-1.248 0.335-2.441 0.369-3.582 0.102-1.135-0.275-2.133-0.845-2.992-1.71-0.853-0.867-1.472-2.018-1.857-3.452v0l-3.203-11.943 2.325-0.624 2.111 7.872 0.049-0.013c0.148-0.605 0.402-1.163 0.761-1.672 0.36-0.51 0.809-0.955 1.348-1.334 0.539-0.379 1.14-0.657 1.803-0.835v0c1.196-0.321 2.339-0.341 3.427-0.061 1.09 0.287 2.042 0.852 2.854 1.695 0.811 0.837 1.397 1.931 1.759 3.282v0c0.286 1.068 0.379 2.07 0.28 3.007-0.099 0.943-0.363 1.797-0.793 2.56-0.43 0.763-1.007 1.411-1.733 1.943-0.721 0.524-1.574 0.918-2.557 1.183zM93.529 20.271v0c0.797-0.214 1.469-0.601 2.015-1.161 0.546-0.56 0.916-1.249 1.111-2.066 0.196-0.811 0.163-1.705-0.099-2.683v0c-0.254-0.945-0.665-1.721-1.234-2.327-0.569-0.606-1.226-1.026-1.972-1.26-0.752-0.233-1.533-0.24-2.343-0.023v0c-0.791 0.212-1.46 0.598-2.006 1.159-0.546 0.56-0.912 1.251-1.098 2.073-0.188 0.816-0.15 1.715 0.114 2.699v0c0.257 0.958 0.67 1.74 1.239 2.346 0.571 0.612 1.233 1.024 1.986 1.236 0.753 0.212 1.515 0.214 2.287 0.007z" fill="#000000" data-fill-palette-color="accent"></path><path d="M127.476 19.274l-2.394-0.253 2.011-19.021 2.394 0.253-0.788 7.449c0.61-0.639 1.32-1.082 2.129-1.331 0.809-0.243 1.631-0.32 2.466-0.232v0c1.179 0.125 2.176 0.478 2.991 1.06 0.815 0.588 1.421 1.352 1.817 2.291 0.39 0.938 0.522 1.997 0.397 3.175v0l-0.813 7.688-2.393-0.253 0.809-7.658c0.085-0.801-0.024-1.512-0.327-2.133-0.303-0.621-0.739-1.119-1.308-1.495-0.563-0.374-1.186-0.597-1.868-0.669v0c-0.675-0.071-1.324 0.014-1.945 0.256-0.622 0.242-1.151 0.628-1.589 1.158-0.432 0.537-0.69 1.203-0.773 1.997v0z" fill="#000000" data-fill-palette-color="accent"></path><path d="M167.028 31.381v0c-1.072-0.551-1.918-1.264-2.54-2.137-0.618-0.88-0.96-1.838-1.026-2.875-0.066-1.037 0.173-2.083 0.715-3.137v0l3.536-6.874 2.167 1.114-3.522 6.848c-0.369 0.716-0.533 1.414-0.493 2.094 0.04 0.679 0.249 1.292 0.627 1.839 0.378 0.546 0.863 0.972 1.455 1.276v0c0.604 0.311 1.238 0.461 1.902 0.451 0.664-0.01 1.29-0.194 1.878-0.551 0.588-0.357 1.066-0.893 1.434-1.609v0l3.523-6.848 2.167 1.115-3.536 6.874c-0.542 1.054-1.26 1.853-2.154 2.397-0.888 0.547-1.866 0.826-2.935 0.837-1.06 0.009-2.126-0.263-3.198-0.814z" fill="#000000" data-fill-palette-color="accent"></path><path d="M196.399 55.197v0c-0.853-0.97-1.413-2.025-1.68-3.164-0.257-1.139-0.189-2.286 0.206-3.441 0.399-1.149 1.156-2.214 2.271-3.195v0l9.284-8.167 1.589 1.808-6.119 5.383 0.033 0.037c0.608-0.136 1.22-0.155 1.837-0.059 0.617 0.096 1.214 0.302 1.793 0.617 0.579 0.315 1.095 0.731 1.548 1.246v0c0.818 0.93 1.343 1.945 1.575 3.044 0.227 1.104 0.142 2.208-0.255 3.31-0.391 1.098-1.112 2.109-2.161 3.032v0c-0.83 0.73-1.687 1.258-2.571 1.584-0.889 0.33-1.771 0.472-2.646 0.425-0.875-0.047-1.711-0.277-2.51-0.692-0.79-0.414-1.521-1.003-2.194-1.768zM197.951 53.832v0c0.545 0.62 1.19 1.05 1.934 1.291 0.744 0.241 1.526 0.267 2.345 0.08 0.814-0.184 1.601-0.61 2.36-1.279v0c0.735-0.646 1.248-1.359 1.538-2.138 0.29-0.779 0.375-1.554 0.255-2.326-0.125-0.777-0.464-1.48-1.018-2.11v0c-0.541-0.615-1.184-1.043-1.928-1.284-0.744-0.241-1.526-0.263-2.345-0.065-0.814 0.193-1.604 0.626-2.369 1.299v0c-0.745 0.655-1.263 1.372-1.553 2.151-0.295 0.783-0.371 1.559-0.227 2.328 0.144 0.769 0.48 1.453 1.008 2.053z" fill="#000000" data-fill-palette-color="accent"></path><path d="M215.066 87.98v0c-0.442-1.214-0.58-2.4-0.414-3.559 0.175-1.155 0.655-2.198 1.443-3.13 0.79-0.925 1.882-1.642 3.277-2.15v0l11.618-4.233 0.824 2.262-7.658 2.79 0.017 0.047c0.616 0.095 1.193 0.299 1.733 0.612 0.539 0.314 1.022 0.723 1.446 1.227 0.425 0.504 0.754 1.079 0.989 1.723v0c0.424 1.164 0.544 2.3 0.36 3.409-0.19 1.111-0.671 2.108-1.44 2.991-0.763 0.881-1.802 1.56-3.116 2.039v0c-1.039 0.378-2.029 0.558-2.971 0.54-0.948-0.016-1.821-0.205-2.619-0.566-0.798-0.361-1.494-0.88-2.088-1.557-0.585-0.673-1.052-1.488-1.401-2.445zM217.009 87.273v0c0.283 0.776 0.727 1.411 1.332 1.906 0.606 0.495 1.324 0.804 2.155 0.926 0.825 0.125 1.713 0.014 2.664-0.332v0c0.92-0.335 1.656-0.812 2.21-1.433 0.554-0.62 0.915-1.311 1.084-2.074 0.166-0.769 0.106-1.548-0.182-2.336v0c-0.28-0.77-0.723-1.402-1.329-1.897-0.606-0.495-1.326-0.8-2.161-0.914-0.829-0.116-1.722 0-2.679 0.349v0c-0.932 0.34-1.675 0.819-2.229 1.439-0.56 0.622-0.913 1.317-1.058 2.087-0.145 0.769-0.081 1.528 0.193 2.279z" fill="#000000" data-fill-palette-color="accent"></path><path d="M10.733 163.951l-0.732-2.262c-0.414-1.343-0.572-2.642-0.474-3.898 0.106-1.252 0.432-2.407 0.977-3.466 0.546-1.059 1.28-1.971 2.201-2.738 0.912-0.771 1.973-1.353 3.183-1.744v0c1.204-0.39 2.404-0.54 3.601-0.452 1.189 0.084 2.315 0.395 3.378 0.933 1.063 0.538 2.004 1.283 2.823 2.235 0.821 0.959 1.458 2.104 1.91 3.435v0l0.732 2.261-2.138 0.692-0.708-2.185c-0.31-0.957-0.769-1.781-1.377-2.473-0.6-0.688-1.295-1.233-2.083-1.635-0.788-0.403-1.639-0.642-2.553-0.717-0.907-0.077-1.839 0.039-2.795 0.348v0c-0.938 0.303-1.761 0.755-2.469 1.355-0.702 0.598-1.255 1.291-1.657 2.08-0.403 0.788-0.643 1.636-0.721 2.543-0.075 0.913 0.035 1.85 0.333 2.81v0l0.707 2.186z" fill="#000000" data-fill-palette-color="accent"></path><path d="M25.712 191.057l-1.394-1.987 15.789-11.076 1.394 1.987z" fill="#000000" data-fill-palette-color="accent"></path><path d="M51.297 216.333v0c-0.974-0.721-1.696-1.569-2.166-2.547-0.479-0.976-0.666-1.983-0.559-3.022 0.101-1.043 0.508-2.047 1.22-3.011v0l4.633-6.263 1.975 1.461-4.621 6.247c-0.479 0.648-0.753 1.315-0.821 2.001-0.069 0.686 0.04 1.329 0.324 1.93 0.286 0.609 0.7 1.114 1.241 1.514v0c0.551 0.408 1.158 0.657 1.819 0.749 0.663 0.101 1.315 0.02 1.956-0.243 0.641-0.263 1.202-0.718 1.68-1.366v0l4.621-6.247 1.976 1.461-4.633 6.263c-0.713 0.964-1.556 1.644-2.529 2.043-0.974 0.398-1.989 0.517-3.046 0.356-1.066-0.159-2.09-0.601-3.07-1.326z" fill="#000000" data-fill-palette-color="accent"></path><path d="M90.381 234.388v0c-1.26-0.339-2.319-0.916-3.175-1.733-0.856-0.816-1.442-1.818-1.756-3.006-0.309-1.186-0.269-2.499 0.118-3.94v0l3.238-12.047 2.344 0.63-2.134 7.938 0.058 0.016c0.431-0.449 0.931-0.808 1.499-1.076 0.575-0.266 1.194-0.427 1.857-0.483 0.665-0.063 1.329-0.005 1.991 0.173v0c1.209 0.325 2.216 0.889 3.021 1.691 0.805 0.802 1.35 1.773 1.637 2.912 0.285 1.145 0.244 2.4-0.122 3.763v0c-0.287 1.067-0.71 1.988-1.27 2.761-0.564 0.765-1.228 1.376-1.993 1.833-0.756 0.452-1.584 0.726-2.485 0.821-0.901 0.096-1.844 0.011-2.828-0.253zM90.923 232.372v0c0.797 0.214 1.577 0.214 2.338-0.003 0.755-0.218 1.424-0.631 2.009-1.238 0.584-0.608 1.008-1.404 1.273-2.389v0c0.258-0.958 0.293-1.845 0.105-2.66-0.194-0.817-0.558-1.515-1.092-2.094-0.539-0.586-1.217-0.989-2.034-1.208v0c-0.797-0.214-1.577-0.214-2.338 0.002-0.761 0.216-1.429 0.633-2.001 1.251-0.581 0.623-1.004 1.426-1.269 2.41v0c-0.261 0.971-0.295 1.865-0.1 2.683 0.187 0.816 0.556 1.508 1.107 2.076 0.55 0.569 1.218 0.958 2.002 1.17z" fill="#000000" data-fill-palette-color="accent"></path><path d="M128.787 237.178l-2.413 0.254-2.016-19.181 2.414-0.254 0.79 7.52c0.469-0.759 1.077-1.345 1.824-1.758 0.746-0.42 1.539-0.674 2.38-0.763v0c1.192-0.125 2.251 0.018 3.179 0.43 0.926 0.405 1.681 1.028 2.265 1.87 0.584 0.842 0.939 1.86 1.064 3.052v0l0.814 7.748-2.414 0.254-0.812-7.728c-0.084-0.801-0.343-1.477-0.775-2.028-0.426-0.551-0.957-0.951-1.592-1.198-0.643-0.254-1.305-0.345-1.987-0.274v0c-0.682 0.072-1.305 0.294-1.868 0.669-0.564 0.367-1.004 0.859-1.322 1.474-0.317 0.616-0.433 1.328-0.348 2.136v0z" fill="#000000" data-fill-palette-color="accent"></path><path d="M173.387 224.245v0c-1.078 0.554-2.159 0.824-3.244 0.812-1.087-0.003-2.073-0.283-2.957-0.839-0.89-0.553-1.609-1.363-2.157-2.429v0l-3.558-6.931 2.186-1.122 3.549 6.913c0.368 0.717 0.844 1.258 1.429 1.624 0.585 0.366 1.209 0.554 1.873 0.565 0.673 0.014 1.309-0.133 1.907-0.441v0c0.61-0.313 1.103-0.746 1.478-1.297 0.384-0.549 0.601-1.169 0.65-1.861 0.049-0.691-0.11-1.395-0.478-2.112v0l-3.549-6.913 2.186-1.122 3.558 6.93c0.547 1.066 0.784 2.124 0.709 3.173-0.075 1.049-0.419 2.012-1.033 2.888-0.616 0.885-1.466 1.606-2.549 2.162z" fill="#000000" data-fill-palette-color="accent"></path><path d="M206.905 197.226v0c-0.863 0.979-1.85 1.672-2.961 2.077-1.111 0.405-2.269 0.486-3.474 0.241-1.2-0.25-2.36-0.867-3.478-1.853v0l-9.361-8.246 1.604-1.821 6.168 5.433 0.04-0.045c-0.212-0.586-0.311-1.193-0.299-1.821 0.017-0.633 0.147-1.259 0.39-1.878 0.239-0.624 0.585-1.193 1.039-1.708v0c0.827-0.939 1.779-1.592 2.855-1.957 1.076-0.365 2.188-0.424 3.336-0.176 1.153 0.253 2.259 0.845 3.318 1.779v0c0.829 0.731 1.467 1.518 1.912 2.363 0.436 0.845 0.689 1.711 0.759 2.598 0.07 0.878-0.052 1.742-0.367 2.592-0.314 0.85-0.808 1.658-1.481 2.422zM205.338 195.846v0c0.546-0.62 0.891-1.318 1.035-2.096 0.14-0.773 0.067-1.556-0.219-2.35-0.286-0.793-0.811-1.527-1.576-2.2v0c-0.744-0.656-1.524-1.081-2.338-1.274-0.819-0.189-1.605-0.172-2.36 0.05-0.764 0.223-1.426 0.652-1.985 1.286v0c-0.546 0.62-0.891 1.318-1.035 2.097-0.144 0.778-0.066 1.561 0.233 2.348 0.3 0.797 0.833 1.532 1.598 2.206v0c0.754 0.665 1.541 1.091 2.359 1.28 0.814 0.194 1.598 0.17 2.352-0.071 0.754-0.241 1.399-0.666 1.936-1.276z" fill="#000000" data-fill-palette-color="accent"></path><path d="M228.242 159.987v0c-0.448 1.226-1.115 2.23-2.003 3.012-0.888 0.782-1.937 1.277-3.148 1.487-1.209 0.204-2.513 0.05-3.915-0.461v0l-11.718-4.279 0.832-2.28 7.722 2.82 0.02-0.057c-0.41-0.469-0.724-0.998-0.94-1.587-0.215-0.596-0.321-1.227-0.32-1.893-0.004-0.668 0.111-1.324 0.347-1.968v0c0.429-1.176 1.079-2.13 1.948-2.861 0.87-0.732 1.884-1.19 3.044-1.377 1.166-0.184 2.412-0.034 3.738 0.451v0c1.038 0.379 1.918 0.881 2.64 1.506 0.713 0.629 1.264 1.344 1.652 2.145 0.384 0.792 0.584 1.642 0.6 2.548 0.016 0.906-0.15 1.838-0.499 2.794zM226.281 159.271v0c0.283-0.776 0.35-1.552 0.202-2.329-0.151-0.771-0.504-1.474-1.059-2.109-0.555-0.635-1.311-1.127-2.268-1.477v0c-0.932-0.34-1.812-0.453-2.641-0.337-0.831 0.122-1.558 0.423-2.181 0.906-0.631 0.486-1.091 1.126-1.381 1.919v0c-0.283 0.776-0.35 1.552-0.202 2.33 0.149 0.777 0.506 1.478 1.072 2.103 0.57 0.633 1.333 1.125 2.29 1.474v0c0.944 0.345 1.832 0.456 2.663 0.334 0.829-0.116 1.551-0.423 2.166-0.921 0.614-0.499 1.061-1.13 1.339-1.892z" fill="#000000" data-fill-palette-color="accent"></path><path d="M2.323 121.551c0-4.035 3.271-7.306 7.307-7.306 4.035 0 7.306 3.271 7.306 7.306 0 4.035-3.271 7.306-7.306 7.306-4.035 0-7.306-3.271-7.307-7.306z" fill="#000000" data-fill-palette-color="accent"></path><path d="M220.496 121.551c0-4.035 3.271-7.306 7.306-7.306 4.035 0 7.306 3.271 7.307 7.306 0 4.035-3.271 7.306-7.307 7.306-4.035 0-7.306-3.271-7.306-7.306z" fill="#000000" data-fill-palette-color="accent"></path></g><g id="text-1"></g></svg></g></svg></g></svg></g><defs></defs></svg><rect width="395.5199999999999" height="139.81154882900177" fill="none" stroke="none" visibility="hidden"></rect></g></svg></g></svg>